<svg xmlns="http://www.w3.org/2000/svg" xmlns:xlink="http://www.w3.org/1999/xlink" width="800" zoomAndPan="magnify" viewBox="0 0 600 599.999999" height="800" preserveAspectRatio="xMidYMid meet" version="1.2"><defs><clipPath id="33bf5cbcbe"><path d="M 0.289062 0 L 600 0 L 600 600 L 0.289062 600 Z M 0.289062 0 "/></clipPath><clipPath id="1464d62117"><path d="M 600.289062 75 L 600.289062 525 C 600.289062 566.421875 566.710938 600 525.289062 600 L 75.289062 600 C 33.871094 600 0.289062 566.421875 0.289062 525 L 0.289062 75 C 0.289062 33.578125 33.871094 0 75.289062 0 L 525.289062 0 C 566.710938 0 600.289062 33.578125 600.289062 75 Z M 600.289062 75 "/></clipPath><clipPath id="e9e62f9dd8"><path d="M 0.289062 0 L 600 0 L 600 600 L 0.289062 600 Z M 0.289062 0 "/></clipPath><clipPath id="d4e9df9570"><path d="M 600.289062 75 L 600.289062 525 C 600.289062 566.421875 566.710938 600 525.289062 600 L 75.289062 600 C 33.871094 600 0.289062 566.421875 0.289062 525 L 0.289062 75 C 0.289062 33.578125 33.871094 0 75.289062 0 L 525.289062 0 C 566.710938 0 600.289062 33.578125 600.289062 75 Z M 600.289062 75 "/></clipPath><clipPath id="1e26d89d62"><rect x="0" width="600" y="0" height="600"/></clipPath><clipPath id="1c1cf11cd5"><rect x="0" width="576" y="0" height="416"/></clipPath><clipPath id="935c084dc4"><path d="M 32.585938 434.21875 L 86.257812 434.21875 L 86.257812 487.890625 L 32.585938 487.890625 Z M 32.585938 434.21875 "/></clipPath><clipPath id="4274f08488"><path d="M 59.421875 434.21875 C 44.601562 434.21875 32.585938 446.234375 32.585938 461.054688 C 32.585938 475.878906 44.601562 487.890625 59.421875 487.890625 C 74.242188 487.890625 86.257812 475.878906 86.257812 461.054688 C 86.257812 446.234375 74.242188 434.21875 59.421875 434.21875 Z M 59.421875 434.21875 "/></clipPath></defs><g id="b8e7bd89a2"><g clip-rule="nonzero" clip-path="url(#33bf5cbcbe)"><g clip-rule="nonzero" clip-path="url(#1464d62117)"><g transform="matrix(1,0,0,1,0.000000000000000028,-0.000000000000034788)"><g clip-path="url(#1e26d89d62)"><g clip-rule="nonzero" clip-path="url(#e9e62f9dd8)"><g clip-rule="nonzero" clip-path="url(#d4e9df9570)"><path style=" stroke:none;fill-rule:nonzero;fill:#ffffff;fill-opacity:1;" d="M 0.289062 0 L 600.289062 0 L 600.289062 600 L 0.289062 600 Z M 0.289062 0 "/></g></g></g></g></g></g><g transform="matrix(1,0,0,1,12,92)"><g clip-path="url(#1c1cf11cd5)"><g style="fill:#000000;fill-opacity:1;"><g transform="translate(3.864443, 322.195082)"><path style="stroke:none" d="M 45.84375 -26.578125 C 48.0625 -23.253906 52.769531 -20.265625 59.96875 -17.609375 C 67.164062 -14.953125 74.75 -13.625 82.71875 -13.625 C 95.34375 -13.625 104.644531 -16.054688 110.625 -20.921875 C 116.613281 -25.796875 119.609375 -32.554688 119.609375 -41.203125 C 119.609375 -47.179688 117.722656 -52.382812 113.953125 -56.8125 C 110.191406 -61.238281 104.929688 -65.164062 98.171875 -68.59375 C 91.421875 -72.03125 81.734375 -76.1875 69.109375 -81.0625 C 52.046875 -87.488281 39.582031 -95.1875 31.71875 -104.15625 C 23.863281 -113.125 19.9375 -124.914062 19.9375 -139.53125 C 19.9375 -149.28125 22.867188 -157.804688 28.734375 -165.109375 C 34.609375 -172.421875 42.691406 -178.125 52.984375 -182.21875 C 63.285156 -186.320312 74.75 -188.375 87.375 -188.375 C 97.5625 -188.375 106.472656 -187.597656 114.109375 -186.046875 C 121.753906 -184.492188 127.898438 -182.941406 132.546875 -181.390625 C 137.203125 -179.847656 140.304688 -178.851562 141.859375 -178.40625 L 141.859375 -137.21875 L 121.59375 -137.21875 L 114.953125 -161.796875 C 113.617188 -164.453125 110.070312 -166.722656 104.3125 -168.609375 C 98.5625 -170.492188 92.140625 -171.4375 85.046875 -171.4375 C 75.078125 -171.4375 67.046875 -169.21875 60.953125 -164.78125 C 54.867188 -160.351562 51.828125 -154.375 51.828125 -146.84375 C 51.828125 -140.195312 53.429688 -134.710938 56.640625 -130.390625 C 59.859375 -126.078125 63.898438 -122.59375 68.765625 -119.9375 C 73.640625 -117.28125 80.285156 -114.179688 88.703125 -110.640625 L 95.34375 -107.96875 C 107.75 -103.101562 117.828125 -98.453125 125.578125 -94.015625 C 133.335938 -89.585938 139.816406 -83.773438 145.015625 -76.578125 C 150.222656 -69.378906 152.828125 -60.578125 152.828125 -50.171875 C 152.828125 -33.773438 146.457031 -20.703125 133.71875 -10.953125 C 120.988281 -1.210938 103.546875 3.65625 81.390625 3.65625 C 70.546875 3.65625 59.195312 2.160156 47.34375 -0.828125 C 35.488281 -3.816406 25.796875 -6.863281 18.265625 -9.96875 L 18.265625 -52.5 L 39.875 -52.5 Z M 45.84375 -26.578125 "/></g></g><g style="fill:#000000;fill-opacity:1;"><g transform="translate(171.639114, 322.195082)"><path style="stroke:none" d="M 32.5625 -247.84375 L 6.640625 -251.5 L 6.640625 -265.78125 L 59.46875 -272.09375 L 59.796875 -272.09375 L 67.109375 -267.109375 L 67.109375 -104.65625 L 66.453125 -85.046875 L 143.1875 -164.453125 L 118.28125 -169.109375 L 118.28125 -184.390625 L 198.671875 -184.390625 L 198.671875 -169.109375 L 172.421875 -164.453125 L 123.59375 -116.953125 L 186.71875 -18.9375 L 207.3125 -16.28125 L 207.3125 0 L 126.578125 0 L 126.578125 -16.28125 L 147.515625 -19.265625 L 100.671875 -96.34375 L 66.453125 -62.453125 L 67.109375 -45.515625 L 67.109375 -19.265625 L 90.703125 -16.28125 L 90.703125 0 L 11.625 0 L 11.625 -16.28125 L 32.5625 -19.265625 Z M 32.5625 -247.84375 "/></g></g><g style="fill:#000000;fill-opacity:1;"><g transform="translate(370.975356, 322.195082)"><path style="stroke:none" d="M 94.359375 89.703125 C 66.003906 89.703125 45.457031 85.21875 32.71875 76.25 C 19.988281 67.28125 13.625 54.929688 13.625 39.203125 C 13.625 29.453125 16.664062 20.476562 22.75 12.28125 C 28.84375 4.09375 36.097656 -2.101562 44.515625 -6.3125 C 34.328125 -12.070312 29.234375 -21.375 29.234375 -34.21875 C 29.234375 -42.195312 31.554688 -49.726562 36.203125 -56.8125 C 40.859375 -63.894531 46.953125 -69.320312 54.484375 -73.09375 C 43.410156 -77.96875 34.9375 -84.941406 29.0625 -94.015625 C 23.195312 -103.097656 20.265625 -113.84375 20.265625 -126.25 C 20.265625 -139.09375 23.863281 -150.273438 31.0625 -159.796875 C 38.257812 -169.328125 47.78125 -176.640625 59.625 -181.734375 C 71.476562 -186.828125 84.050781 -189.375 97.34375 -189.375 C 119.71875 -189.375 137.21875 -184.722656 149.84375 -175.421875 C 153.164062 -178.742188 158.257812 -181.953125 165.125 -185.046875 C 171.988281 -188.148438 179.296875 -189.703125 187.046875 -189.703125 L 198.34375 -189.703125 L 198.34375 -160.46875 L 161.796875 -160.46875 C 167.109375 -152.269531 169.765625 -142.742188 169.765625 -131.890625 C 169.765625 -118.828125 166.5 -107.253906 159.96875 -97.171875 C 153.4375 -87.097656 144.351562 -79.289062 132.71875 -73.75 C 121.09375 -68.21875 107.972656 -65.453125 93.359375 -65.453125 C 83.835938 -65.453125 75.3125 -66.445312 67.78125 -68.4375 C 64.675781 -65.332031 62.125 -61.898438 60.125 -58.140625 C 58.132812 -54.378906 57.140625 -50.722656 57.140625 -47.171875 C 57.140625 -39.203125 59.796875 -33.722656 65.109375 -30.734375 C 70.429688 -27.742188 79.957031 -26.25 93.6875 -26.25 L 131.234375 -26.25 C 152.710938 -26.25 168.65625 -22.148438 179.0625 -13.953125 C 189.476562 -5.753906 194.6875 5.875 194.6875 20.9375 C 194.6875 33.5625 190.144531 45.132812 181.0625 55.65625 C 171.988281 66.175781 159.753906 74.476562 144.359375 80.5625 C 128.960938 86.65625 112.296875 89.703125 94.359375 89.703125 Z M 96.6875 -83.71875 C 121.9375 -83.71875 134.5625 -98.671875 134.5625 -128.578125 C 134.5625 -143.410156 131.289062 -154.316406 124.75 -161.296875 C 118.21875 -168.273438 108.414062 -171.765625 95.34375 -171.765625 C 83.164062 -171.765625 73.53125 -168.382812 66.4375 -161.625 C 59.351562 -154.875 55.8125 -144.078125 55.8125 -129.234375 C 55.8125 -115.285156 59.1875 -104.210938 65.9375 -96.015625 C 72.695312 -87.816406 82.945312 -83.71875 96.6875 -83.71875 Z M 97.34375 70.4375 C 108.195312 70.4375 118.441406 68.828125 128.078125 65.609375 C 137.710938 62.398438 145.519531 57.640625 151.5 51.328125 C 157.476562 45.015625 160.46875 37.648438 160.46875 29.234375 C 160.46875 19.265625 157.804688 12.007812 152.484375 7.46875 C 147.171875 2.9375 136.875 0.671875 121.59375 0.671875 L 82.390625 0.671875 C 73.535156 0.671875 66.5625 0.113281 61.46875 -1 C 52.382812 8.96875 47.84375 20.15625 47.84375 32.5625 C 47.84375 44.96875 51.609375 54.378906 59.140625 60.796875 C 66.671875 67.222656 79.40625 70.4375 97.34375 70.4375 Z M 97.34375 70.4375 "/></g></g></g></g><g clip-rule="nonzero" clip-path="url(#935c084dc4)"><g clip-rule="nonzero" clip-path="url(#4274f08488)"><path style="fill:none;stroke-width:42;stroke-linecap:butt;stroke-linejoin:miter;stroke:#000000;stroke-opacity:1;stroke-miterlimit:4;" d="M 35.781162 -0.00237263 C 16.020744 -0.00237263 -0.0000895596 16.018461 -0.0000895596 35.778879 C -0.0000895596 55.544505 16.020744 71.56013 35.781162 71.56013 C 55.541579 71.56013 71.562413 55.544505 71.562413 35.778879 C 71.562413 16.018461 55.541579 -0.00237263 35.781162 -0.00237263 Z M 35.781162 -0.00237263 " transform="matrix(0.75,0,0,0.75,32.586005,434.220529)"/></g></g><path style=" stroke:none;fill-rule:nonzero;fill:#000000;fill-opacity:1;" d="M 86.265625 453.1875 L 180.765625 453.1875 L 180.765625 468.9375 L 86.265625 468.9375 M 196.515625 453.1875 L 291.015625 453.1875 L 291.015625 468.9375 L 196.515625 468.9375 M 306.765625 453.1875 L 401.265625 453.1875 L 401.265625 468.9375 L 306.765625 468.9375 "/></g></svg>